<?xml version="1.0" encoding="UTF-8"?>
<svg width="10px" height="8px" viewBox="0 0 10 8" version="1.1" xmlns="http://www.w3.org/2000/svg" xmlns:xlink="http://www.w3.org/1999/xlink">
    <!-- Generator: Sketch 51.2 (57519) - http://www.bohemiancoding.com/sketch -->
    <title>noun_Arrow_1920798</title>
    <desc>Created with Sketch.</desc>
    <defs></defs>
    <g id="Page-1" stroke="none" stroke-width="1" fill="none" fill-rule="evenodd">
        <g id="AVA" transform="translate(-733.000000, -267.000000)" fill="#CF4B00" fill-rule="nonzero">
            <g id="noun_Arrow_1920798" transform="translate(738.000000, 271.000000) scale(-1, 1) translate(-738.000000, -271.000000) translate(733.000000, 267.000000)">
                <path d="M0.15625,4.01041667 L3.47916667,7.33333333 C3.625,7.47916667 3.85416667,7.47916667 3.98958333,7.33333333 C4.13541667,7.1875 4.13541667,6.95833333 3.98958333,6.82291667 L1.28125,4.11458333 L9.58333333,4.11458333 C9.78125,4.11458333 9.94791667,3.94791667 9.94791667,3.75 C9.94791667,3.55208333 9.78125,3.38541667 9.58333333,3.38541667 L1.29166667,3.38541667 L4,0.677083333 C4.14583333,0.53125 4.14583333,0.302083333 4,0.166666667 C3.92708333,0.09375 3.83333333,0.0625 3.73958333,0.0625 C3.64583333,0.0625 3.55208333,0.09375 3.47916667,0.166666667 L0.15625,3.48958333 C0.0833333333,3.5625 0.0520833333,3.64583333 0.0520833333,3.75 C0.0520833333,3.85416667 0.09375,3.9375 0.15625,4.01041667 Z" id="Shape"></path>
            </g>
        </g>
    </g>
</svg>